<mxfile host="Electron" modified="2024-07-12T14:31:48.668Z" agent="Mozilla/5.0 (Macintosh; Intel Mac OS X 10_15_7) AppleWebKit/537.36 (KHTML, like Gecko) draw.io/24.6.4 Chrome/124.0.6367.207 Electron/30.0.6 Safari/537.36" etag="wMZmh4hZts2GxKytUp0W" version="24.6.4" type="device" pages="4">
  <diagram id="Rfz-nHKzfFXtIfp8jGCo" name="main">
    <mxGraphModel dx="1100" dy="713" grid="1" gridSize="10" guides="1" tooltips="1" connect="1" arrows="1" fold="1" page="1" pageScale="1" pageWidth="850" pageHeight="1100" math="0" shadow="0">
      <root>
        <mxCell id="0" />
        <mxCell id="1" parent="0" />
        <mxCell id="_-YTuwWALcvk040Sg-yM-1" value="1then2withoverrun" style="rounded=1;container=1;recursiveResize=0;verticalAlign=top;arcSize=6;fontStyle=1;autosize=0;points=[];absoluteArcSize=1;shadow=1;strokeColor=#6c8ebf;fillColor=#dae8fc;fontFamily=Helvetica;fontSize=11;gradientColor=#0050EF;fontColor=default;" parent="1" vertex="1">
          <mxGeometry x="160" y="120" width="140" height="200" as="geometry">
            <mxRectangle x="-98" y="-1230" width="99" height="26" as="alternateBounds" />
          </mxGeometry>
        </mxCell>
        <mxCell id="_-YTuwWALcvk040Sg-yM-2" value="1" style="rounded=1;sketch=0;points=[[0,0.5,0,0,0],[1,0.5,0,0,0]];arcSize=50;fontFamily=Helvetica;fontSize=11;fontColor=default;" parent="_-YTuwWALcvk040Sg-yM-1" vertex="1">
          <mxGeometry x="-16.75" y="27.5" width="36.75" height="25" as="geometry" />
        </mxCell>
        <mxCell id="_-YTuwWALcvk040Sg-yM-3" value="1" style="rounded=1;sketch=0;points=[[0,0.5,0,0,0],[1,0.5,0,0,0]];fillColor=#1ba1e2;fontColor=#ffffff;strokeColor=#006EAF;arcSize=50;fontFamily=Helvetica;fontSize=11;" parent="_-YTuwWALcvk040Sg-yM-1" vertex="1">
          <mxGeometry x="120" y="27.5" width="36" height="25" as="geometry" />
        </mxCell>
        <mxCell id="nQu-WmDZptvUj_XYM0uV-1" value="2" style="rounded=1;sketch=0;points=[[0,0.5,0,0,0],[1,0.5,0,0,0]];arcSize=50;fontFamily=Helvetica;fontSize=11;fontColor=default;" vertex="1" parent="_-YTuwWALcvk040Sg-yM-1">
          <mxGeometry x="-16.75" y="70" width="36.75" height="25" as="geometry" />
        </mxCell>
        <mxCell id="nQu-WmDZptvUj_XYM0uV-2" value="2" style="rounded=1;sketch=0;points=[[0,0.5,0,0,0],[1,0.5,0,0,0]];fillColor=#1ba1e2;fontColor=#ffffff;strokeColor=#006EAF;arcSize=50;fontFamily=Helvetica;fontSize=11;" vertex="1" parent="_-YTuwWALcvk040Sg-yM-1">
          <mxGeometry x="120" y="67.5" width="36" height="25" as="geometry" />
        </mxCell>
        <mxCell id="_-YTuwWALcvk040Sg-yM-4" value="✗" style="rounded=1;sketch=0;points=[[0,0.5,0,0,0],[1,0.5,0,0,0]];fillColor=#1ba1e2;fontColor=#ffffff;strokeColor=#006EAF;arcSize=50;fontFamily=Helvetica;fontSize=11;textOpacity=30;" parent="_-YTuwWALcvk040Sg-yM-1" vertex="1">
          <mxGeometry x="120" y="160" width="36" height="25" as="geometry" />
        </mxCell>
        <mxCell id="nQu-WmDZptvUj_XYM0uV-18" value="reset" style="rounded=1;sketch=0;points=[[0,0.5,0,0,0],[1,0.5,0,0,0]];arcSize=50;fontFamily=Helvetica;fontSize=11;fontColor=default;" vertex="1" parent="_-YTuwWALcvk040Sg-yM-1">
          <mxGeometry x="119.25" y="122.5" width="36.75" height="25" as="geometry" />
        </mxCell>
        <mxCell id="_-YTuwWALcvk040Sg-yM-5" value="x" style="rhombus;rounded=1;fontStyle=1;glass=0;sketch=0;fontSize=12;points=[[0,0.5,0,0,0],[0.5,0,0,0,0],[0.5,1,0,0,0],[1,0.5,0,0,0]];shadow=1;fontFamily=Helvetica;fontColor=default;" parent="1" vertex="1">
          <mxGeometry x="20" y="120" width="40" height="40" as="geometry" />
        </mxCell>
        <mxCell id="_-YTuwWALcvk040Sg-yM-7" value="✗" style="rhombus;rounded=1;fillColor=#0050ef;fontColor=#ffffff;strokeColor=#001DBC;fontStyle=1;glass=0;sketch=0;fontSize=12;points=[[0,0.5,0,0,0],[0.5,0,0,0,0],[0.5,1,0,0,0],[1,0.5,0,0,0]];shadow=1;opacity=30;textOpacity=30;" parent="1" vertex="1">
          <mxGeometry x="985" y="620" width="40" height="40" as="geometry" />
        </mxCell>
        <mxCell id="muS90Lyi-2VeOUaxBQOB-2" value="" style="rhombus;rounded=1;fontStyle=1;glass=0;sketch=0;fontSize=12;points=[[0,0.5,0,0,0],[0.5,0,0,0,0],[0.5,1,0,0,0],[1,0.5,0,0,0]];shadow=1;fillColor=#0050ef;fontColor=#ffffff;strokeColor=#001DBC;fontFamily=Helvetica;" parent="1" vertex="1">
          <mxGeometry x="985" y="220" width="40" height="40" as="geometry" />
        </mxCell>
        <mxCell id="nQu-WmDZptvUj_XYM0uV-14" value="y" style="rhombus;rounded=1;fontStyle=1;glass=0;sketch=0;fontSize=12;points=[[0,0.5,0,0,0],[0.5,0,0,0,0],[0.5,1,0,0,0],[1,0.5,0,0,0]];shadow=1;fontFamily=Helvetica;fontColor=default;" vertex="1" parent="1">
          <mxGeometry x="20" y="200" width="40" height="40" as="geometry" />
        </mxCell>
        <mxCell id="nQu-WmDZptvUj_XYM0uV-15" value="z" style="rhombus;rounded=1;fontStyle=1;glass=0;sketch=0;fontSize=12;points=[[0,0.5,0,0,0],[0.5,0,0,0,0],[0.5,1,0,0,0],[1,0.5,0,0,0]];shadow=1;fontFamily=Helvetica;fontColor=default;" vertex="1" parent="1">
          <mxGeometry x="20" y="422.5" width="40" height="40" as="geometry" />
        </mxCell>
        <mxCell id="nQu-WmDZptvUj_XYM0uV-16" value="" style="edgeStyle=orthogonalEdgeStyle;rounded=1;orthogonalLoop=1;jettySize=auto;exitX=1;exitY=0.5;exitDx=0;exitDy=0;exitPerimeter=0;entryX=0;entryY=0.5;entryDx=0;entryDy=0;entryPerimeter=0;curved=0;strokeWidth=2;fillColor=#d5e8d4;strokeColor=#82b366;" edge="1" parent="1" source="_-YTuwWALcvk040Sg-yM-5" target="_-YTuwWALcvk040Sg-yM-2">
          <mxGeometry relative="1" as="geometry" />
        </mxCell>
        <mxCell id="nQu-WmDZptvUj_XYM0uV-17" value="" style="edgeStyle=orthogonalEdgeStyle;shape=connector;curved=0;rounded=1;orthogonalLoop=1;jettySize=auto;exitX=1;exitY=0.5;exitDx=0;exitDy=0;exitPerimeter=0;entryX=0;entryY=0.5;entryDx=0;entryDy=0;entryPerimeter=0;strokeColor=#82b366;strokeWidth=2;align=center;verticalAlign=middle;fontFamily=Helvetica;fontSize=11;fontColor=default;labelBackgroundColor=default;endArrow=classic;fillColor=#d5e8d4;" edge="1" parent="1" source="nQu-WmDZptvUj_XYM0uV-14" target="nQu-WmDZptvUj_XYM0uV-1">
          <mxGeometry relative="1" as="geometry" />
        </mxCell>
        <mxCell id="nQu-WmDZptvUj_XYM0uV-27" value="1then2withoverrun" style="rounded=1;container=1;recursiveResize=0;verticalAlign=top;arcSize=6;fontStyle=1;autosize=0;points=[];absoluteArcSize=1;shadow=1;strokeColor=#6c8ebf;fillColor=#dae8fc;fontFamily=Helvetica;fontSize=11;gradientColor=#0050EF;fontColor=default;" vertex="1" parent="1">
          <mxGeometry x="430" y="360" width="140" height="200" as="geometry">
            <mxRectangle x="-98" y="-1230" width="99" height="26" as="alternateBounds" />
          </mxGeometry>
        </mxCell>
        <mxCell id="nQu-WmDZptvUj_XYM0uV-28" value="1" style="rounded=1;sketch=0;points=[[0,0.5,0,0,0],[1,0.5,0,0,0]];arcSize=50;fontFamily=Helvetica;fontSize=11;fontColor=default;" vertex="1" parent="nQu-WmDZptvUj_XYM0uV-27">
          <mxGeometry x="-16.75" y="27.5" width="36.75" height="25" as="geometry" />
        </mxCell>
        <mxCell id="nQu-WmDZptvUj_XYM0uV-29" value="1" style="rounded=1;sketch=0;points=[[0,0.5,0,0,0],[1,0.5,0,0,0]];fillColor=#1ba1e2;fontColor=#ffffff;strokeColor=#006EAF;arcSize=50;fontFamily=Helvetica;fontSize=11;" vertex="1" parent="nQu-WmDZptvUj_XYM0uV-27">
          <mxGeometry x="120" y="27.5" width="36" height="25" as="geometry" />
        </mxCell>
        <mxCell id="nQu-WmDZptvUj_XYM0uV-30" value="2" style="rounded=1;sketch=0;points=[[0,0.5,0,0,0],[1,0.5,0,0,0]];arcSize=50;fontFamily=Helvetica;fontSize=11;fontColor=default;" vertex="1" parent="nQu-WmDZptvUj_XYM0uV-27">
          <mxGeometry x="-16.75" y="70" width="36.75" height="25" as="geometry" />
        </mxCell>
        <mxCell id="nQu-WmDZptvUj_XYM0uV-31" value="2" style="rounded=1;sketch=0;points=[[0,0.5,0,0,0],[1,0.5,0,0,0]];fillColor=#1ba1e2;fontColor=#ffffff;strokeColor=#006EAF;arcSize=50;fontFamily=Helvetica;fontSize=11;" vertex="1" parent="nQu-WmDZptvUj_XYM0uV-27">
          <mxGeometry x="120" y="67.5" width="36" height="25" as="geometry" />
        </mxCell>
        <mxCell id="nQu-WmDZptvUj_XYM0uV-32" value="✗" style="rounded=1;sketch=0;points=[[0,0.5,0,0,0],[1,0.5,0,0,0]];fillColor=#1ba1e2;fontColor=#ffffff;strokeColor=#006EAF;arcSize=50;fontFamily=Helvetica;fontSize=11;textOpacity=30;" vertex="1" parent="nQu-WmDZptvUj_XYM0uV-27">
          <mxGeometry x="120" y="160" width="36" height="25" as="geometry" />
        </mxCell>
        <mxCell id="nQu-WmDZptvUj_XYM0uV-33" value="reset" style="rounded=1;sketch=0;points=[[0,0.5,0,0,0],[1,0.5,0,0,0]];arcSize=50;fontFamily=Helvetica;fontSize=11;fontColor=default;" vertex="1" parent="nQu-WmDZptvUj_XYM0uV-27">
          <mxGeometry x="119.25" y="110" width="36.75" height="25" as="geometry" />
        </mxCell>
        <mxCell id="nQu-WmDZptvUj_XYM0uV-36" value="" style="edgeStyle=orthogonalEdgeStyle;shape=connector;curved=0;rounded=1;orthogonalLoop=1;jettySize=auto;exitX=1;exitY=0.5;exitDx=0;exitDy=0;exitPerimeter=0;entryX=0;entryY=0.5;entryDx=0;entryDy=0;entryPerimeter=0;strokeColor=#82b366;strokeWidth=2;align=center;verticalAlign=middle;fontFamily=Helvetica;fontSize=11;fontColor=default;labelBackgroundColor=default;endArrow=classic;fillColor=#d5e8d4;" edge="1" parent="1" source="nQu-WmDZptvUj_XYM0uV-2" target="nQu-WmDZptvUj_XYM0uV-28">
          <mxGeometry relative="1" as="geometry">
            <Array as="points">
              <mxPoint x="380" y="200" />
              <mxPoint x="380" y="400" />
            </Array>
          </mxGeometry>
        </mxCell>
        <mxCell id="nQu-WmDZptvUj_XYM0uV-37" value="" style="edgeStyle=orthogonalEdgeStyle;shape=connector;curved=0;rounded=1;orthogonalLoop=1;jettySize=auto;exitX=0;exitY=0.5;exitDx=0;exitDy=0;exitPerimeter=0;entryX=1;entryY=0.5;entryDx=0;entryDy=0;entryPerimeter=0;strokeColor=#d6b656;strokeWidth=2;align=center;verticalAlign=middle;fontFamily=Helvetica;fontSize=11;fontColor=default;labelBackgroundColor=default;endArrow=classic;fillColor=#fff2cc;dashed=1;" edge="1" parent="1" source="nQu-WmDZptvUj_XYM0uV-45" target="nQu-WmDZptvUj_XYM0uV-18">
          <mxGeometry relative="1" as="geometry">
            <Array as="points">
              <mxPoint x="460" y="343" />
              <mxPoint x="460" y="255" />
            </Array>
          </mxGeometry>
        </mxCell>
        <mxCell id="nQu-WmDZptvUj_XYM0uV-38" value="do something" style="rounded=1;container=1;recursiveResize=0;verticalAlign=top;arcSize=6;fontStyle=1;autosize=0;points=[];absoluteArcSize=1;shadow=1;strokeColor=#6c8ebf;fillColor=#dae8fc;fontFamily=Helvetica;fontSize=11;gradientColor=#0050EF;fontColor=default;" vertex="1" parent="1">
          <mxGeometry x="720" y="200" width="140" height="200" as="geometry">
            <mxRectangle x="-98" y="-1230" width="99" height="26" as="alternateBounds" />
          </mxGeometry>
        </mxCell>
        <mxCell id="nQu-WmDZptvUj_XYM0uV-39" value="x" style="rounded=1;sketch=0;points=[[0,0.5,0,0,0],[1,0.5,0,0,0]];arcSize=50;fontFamily=Helvetica;fontSize=11;fontColor=default;" vertex="1" parent="nQu-WmDZptvUj_XYM0uV-38">
          <mxGeometry x="-16.75" y="27.5" width="36.75" height="25" as="geometry" />
        </mxCell>
        <mxCell id="nQu-WmDZptvUj_XYM0uV-40" value="" style="rounded=1;sketch=0;points=[[0,0.5,0,0,0],[1,0.5,0,0,0]];fillColor=#1ba1e2;fontColor=#ffffff;strokeColor=#006EAF;arcSize=50;fontFamily=Helvetica;fontSize=11;" vertex="1" parent="nQu-WmDZptvUj_XYM0uV-38">
          <mxGeometry x="120" y="27.5" width="36" height="25" as="geometry" />
        </mxCell>
        <mxCell id="nQu-WmDZptvUj_XYM0uV-41" value="y" style="rounded=1;sketch=0;points=[[0,0.5,0,0,0],[1,0.5,0,0,0]];arcSize=50;fontFamily=Helvetica;fontSize=11;fontColor=default;" vertex="1" parent="nQu-WmDZptvUj_XYM0uV-38">
          <mxGeometry x="-16.75" y="60" width="36.75" height="25" as="geometry" />
        </mxCell>
        <mxCell id="nQu-WmDZptvUj_XYM0uV-45" value="finished" style="rounded=1;sketch=0;points=[[0,0.5,0,0,0],[1,0.5,0,0,0]];fillColor=#1ba1e2;fontColor=#ffffff;strokeColor=#006EAF;arcSize=50;fontFamily=Helvetica;fontSize=11;" vertex="1" parent="nQu-WmDZptvUj_XYM0uV-38">
          <mxGeometry x="-16.75" y="130" width="46.75" height="25" as="geometry" />
        </mxCell>
        <mxCell id="nQu-WmDZptvUj_XYM0uV-50" value="✗" style="rounded=1;sketch=0;points=[[0,0.5,0,0,0],[1,0.5,0,0,0]];fillColor=#1ba1e2;fontColor=#ffffff;strokeColor=#006EAF;arcSize=50;fontFamily=Helvetica;fontSize=11;textOpacity=30;" vertex="1" parent="nQu-WmDZptvUj_XYM0uV-38">
          <mxGeometry x="120" y="140" width="36" height="25" as="geometry" />
        </mxCell>
        <mxCell id="nQu-WmDZptvUj_XYM0uV-44" value="z" style="rounded=1;sketch=0;points=[[0,0.5,0,0,0],[1,0.5,0,0,0]];arcSize=50;fontFamily=Helvetica;fontSize=11;fontColor=default;" vertex="1" parent="nQu-WmDZptvUj_XYM0uV-38">
          <mxGeometry x="-16.75" y="87.5" width="36.75" height="25" as="geometry" />
        </mxCell>
        <mxCell id="nQu-WmDZptvUj_XYM0uV-46" value="" style="edgeStyle=orthogonalEdgeStyle;shape=connector;curved=0;rounded=1;orthogonalLoop=1;jettySize=auto;exitX=1;exitY=0.5;exitDx=0;exitDy=0;exitPerimeter=0;entryX=0;entryY=0.5;entryDx=0;entryDy=0;entryPerimeter=0;strokeColor=#82b366;strokeWidth=2;align=center;verticalAlign=middle;fontFamily=Helvetica;fontSize=11;fontColor=default;labelBackgroundColor=default;endArrow=classic;fillColor=#d5e8d4;" edge="1" parent="1" source="_-YTuwWALcvk040Sg-yM-3" target="nQu-WmDZptvUj_XYM0uV-39">
          <mxGeometry relative="1" as="geometry" />
        </mxCell>
        <mxCell id="nQu-WmDZptvUj_XYM0uV-47" value="" style="edgeStyle=orthogonalEdgeStyle;shape=connector;curved=0;rounded=1;orthogonalLoop=1;jettySize=auto;exitX=1;exitY=0.5;exitDx=0;exitDy=0;exitPerimeter=0;strokeColor=#82b366;strokeWidth=2;align=center;verticalAlign=middle;fontFamily=Helvetica;fontSize=11;fontColor=default;labelBackgroundColor=default;endArrow=classic;entryX=0;entryY=0.5;entryDx=0;entryDy=0;entryPerimeter=0;fillColor=#d5e8d4;" edge="1" parent="1" source="nQu-WmDZptvUj_XYM0uV-29" target="nQu-WmDZptvUj_XYM0uV-41">
          <mxGeometry relative="1" as="geometry">
            <Array as="points">
              <mxPoint x="620" y="400" />
              <mxPoint x="620" y="273" />
            </Array>
          </mxGeometry>
        </mxCell>
        <mxCell id="nQu-WmDZptvUj_XYM0uV-48" value="" style="edgeStyle=orthogonalEdgeStyle;shape=connector;curved=0;rounded=1;orthogonalLoop=1;jettySize=auto;exitX=1;exitY=0.5;exitDx=0;exitDy=0;exitPerimeter=0;entryX=0;entryY=0.5;entryDx=0;entryDy=0;entryPerimeter=0;strokeColor=#82b366;strokeWidth=2;align=center;verticalAlign=middle;fontFamily=Helvetica;fontSize=11;fontColor=default;labelBackgroundColor=default;endArrow=classic;fillColor=#d5e8d4;" edge="1" parent="1" source="nQu-WmDZptvUj_XYM0uV-31" target="nQu-WmDZptvUj_XYM0uV-44">
          <mxGeometry relative="1" as="geometry" />
        </mxCell>
        <mxCell id="nQu-WmDZptvUj_XYM0uV-49" value="" style="edgeStyle=orthogonalEdgeStyle;shape=connector;curved=0;rounded=1;orthogonalLoop=1;jettySize=auto;exitX=0;exitY=0.5;exitDx=0;exitDy=0;exitPerimeter=0;entryX=1;entryY=0.5;entryDx=0;entryDy=0;entryPerimeter=0;strokeColor=#d6b656;strokeWidth=2;align=center;verticalAlign=middle;fontFamily=Helvetica;fontSize=11;fontColor=default;labelBackgroundColor=default;endArrow=classic;fillColor=#fff2cc;dashed=1;" edge="1" parent="1" source="nQu-WmDZptvUj_XYM0uV-45" target="nQu-WmDZptvUj_XYM0uV-33">
          <mxGeometry relative="1" as="geometry">
            <Array as="points">
              <mxPoint x="670" y="343" />
              <mxPoint x="670" y="483" />
            </Array>
          </mxGeometry>
        </mxCell>
        <mxCell id="nQu-WmDZptvUj_XYM0uV-51" value="" style="edgeStyle=orthogonalEdgeStyle;shape=connector;curved=0;rounded=1;orthogonalLoop=1;jettySize=auto;exitX=1;exitY=0.5;exitDx=0;exitDy=0;exitPerimeter=0;strokeColor=#b85450;strokeWidth=1;align=center;verticalAlign=middle;fontFamily=Helvetica;fontSize=11;fontColor=default;labelBackgroundColor=default;endArrow=classic;entryX=0;entryY=0.5;entryDx=0;entryDy=0;entryPerimeter=0;fillColor=#f8cecc;dashed=1;" edge="1" parent="1" source="nQu-WmDZptvUj_XYM0uV-50" target="_-YTuwWALcvk040Sg-yM-7">
          <mxGeometry relative="1" as="geometry">
            <mxPoint x="900" y="630" as="targetPoint" />
          </mxGeometry>
        </mxCell>
        <mxCell id="nQu-WmDZptvUj_XYM0uV-52" value="" style="edgeStyle=orthogonalEdgeStyle;shape=connector;curved=0;rounded=1;orthogonalLoop=1;jettySize=auto;exitX=1;exitY=0.5;exitDx=0;exitDy=0;exitPerimeter=0;strokeColor=#b85450;strokeWidth=1;align=center;verticalAlign=middle;fontFamily=Helvetica;fontSize=11;fontColor=default;labelBackgroundColor=default;endArrow=classic;entryX=0;entryY=0.5;entryDx=0;entryDy=0;entryPerimeter=0;fillColor=#f8cecc;dashed=1;" edge="1" parent="1" source="nQu-WmDZptvUj_XYM0uV-32" target="_-YTuwWALcvk040Sg-yM-7">
          <mxGeometry relative="1" as="geometry">
            <Array as="points">
              <mxPoint x="640" y="533" />
              <mxPoint x="640" y="640" />
            </Array>
          </mxGeometry>
        </mxCell>
        <mxCell id="nQu-WmDZptvUj_XYM0uV-53" value="" style="edgeStyle=orthogonalEdgeStyle;shape=connector;curved=0;rounded=1;orthogonalLoop=1;jettySize=auto;exitX=1;exitY=0.5;exitDx=0;exitDy=0;exitPerimeter=0;entryX=0;entryY=0.5;entryDx=0;entryDy=0;entryPerimeter=0;strokeColor=#b85450;strokeWidth=1;align=center;verticalAlign=middle;fontFamily=Helvetica;fontSize=11;fontColor=default;labelBackgroundColor=default;endArrow=classic;fillColor=#f8cecc;dashed=1;" edge="1" parent="1" source="_-YTuwWALcvk040Sg-yM-4" target="_-YTuwWALcvk040Sg-yM-7">
          <mxGeometry relative="1" as="geometry">
            <Array as="points">
              <mxPoint x="340" y="293" />
              <mxPoint x="340" y="640" />
            </Array>
          </mxGeometry>
        </mxCell>
        <mxCell id="nQu-WmDZptvUj_XYM0uV-54" value="" style="edgeStyle=orthogonalEdgeStyle;shape=connector;curved=0;rounded=1;orthogonalLoop=1;jettySize=auto;exitX=1;exitY=0.5;exitDx=0;exitDy=0;exitPerimeter=0;entryX=0;entryY=0.5;entryDx=0;entryDy=0;entryPerimeter=0;strokeColor=#82b366;strokeWidth=2;align=center;verticalAlign=middle;fontFamily=Helvetica;fontSize=11;fontColor=default;labelBackgroundColor=default;endArrow=classic;fillColor=#d5e8d4;" edge="1" parent="1" source="nQu-WmDZptvUj_XYM0uV-40" target="muS90Lyi-2VeOUaxBQOB-2">
          <mxGeometry relative="1" as="geometry" />
        </mxCell>
        <mxCell id="kC0wMGdekWL9k1PPsgX_-1" style="edgeStyle=orthogonalEdgeStyle;shape=connector;curved=0;rounded=1;orthogonalLoop=1;jettySize=auto;html=1;exitX=1;exitY=0.5;exitDx=0;exitDy=0;exitPerimeter=0;entryX=0;entryY=0.5;entryDx=0;entryDy=0;entryPerimeter=0;strokeColor=#82b366;strokeWidth=2;align=center;verticalAlign=middle;fontFamily=Helvetica;fontSize=11;fontColor=default;labelBackgroundColor=default;endArrow=classic;fillColor=#d5e8d4;" edge="1" parent="1" source="nQu-WmDZptvUj_XYM0uV-15" target="nQu-WmDZptvUj_XYM0uV-30">
          <mxGeometry relative="1" as="geometry" />
        </mxCell>
      </root>
    </mxGraphModel>
  </diagram>
  <diagram name="main control flow" id="-t7Lo-010nzcqnOSbuu0">
    <mxGraphModel dx="1100" dy="713" grid="1" gridSize="10" guides="1" tooltips="1" connect="1" arrows="1" fold="1" page="1" pageScale="1" pageWidth="850" pageHeight="1100" math="0" shadow="0">
      <root>
        <mxCell id="uTO2k-UujEey4Sm7rqsx-0" />
        <mxCell id="uTO2k-UujEey4Sm7rqsx-1" parent="uTO2k-UujEey4Sm7rqsx-0" />
        <mxCell id="uTO2k-UujEey4Sm7rqsx-2" value="1then2withoverrun" style="rounded=1;container=1;recursiveResize=0;verticalAlign=top;arcSize=6;fontStyle=1;autosize=0;points=[];absoluteArcSize=1;shadow=1;strokeColor=#6c8ebf;fillColor=#dae8fc;fontFamily=Helvetica;fontSize=11;gradientColor=#0050EF;fontColor=default;" vertex="1" parent="uTO2k-UujEey4Sm7rqsx-1">
          <mxGeometry x="160" y="200" width="140" height="130" as="geometry">
            <mxRectangle x="-98" y="-1230" width="99" height="26" as="alternateBounds" />
          </mxGeometry>
        </mxCell>
        <mxCell id="uTO2k-UujEey4Sm7rqsx-3" value="1" style="rounded=1;sketch=0;points=[[0,0.5,0,0,0],[1,0.5,0,0,0]];arcSize=50;fontFamily=Helvetica;fontSize=11;fontColor=default;" vertex="1" parent="uTO2k-UujEey4Sm7rqsx-2">
          <mxGeometry x="-16.75" y="27.5" width="36.75" height="25" as="geometry" />
        </mxCell>
        <mxCell id="uTO2k-UujEey4Sm7rqsx-4" value="1" style="rounded=1;sketch=0;points=[[0,0.5,0,0,0],[1,0.5,0,0,0]];fillColor=#1ba1e2;fontColor=#ffffff;strokeColor=#006EAF;arcSize=50;fontFamily=Helvetica;fontSize=11;" vertex="1" parent="uTO2k-UujEey4Sm7rqsx-2">
          <mxGeometry x="120" y="27.5" width="36" height="25" as="geometry" />
        </mxCell>
        <mxCell id="uTO2k-UujEey4Sm7rqsx-5" value="2" style="rounded=1;sketch=0;points=[[0,0.5,0,0,0],[1,0.5,0,0,0]];arcSize=50;fontFamily=Helvetica;fontSize=11;fontColor=default;" vertex="1" parent="uTO2k-UujEey4Sm7rqsx-2">
          <mxGeometry x="-16.75" y="70" width="36.75" height="25" as="geometry" />
        </mxCell>
        <mxCell id="uTO2k-UujEey4Sm7rqsx-6" value="2" style="rounded=1;sketch=0;points=[[0,0.5,0,0,0],[1,0.5,0,0,0]];fillColor=#1ba1e2;fontColor=#ffffff;strokeColor=#006EAF;arcSize=50;fontFamily=Helvetica;fontSize=11;" vertex="1" parent="uTO2k-UujEey4Sm7rqsx-2">
          <mxGeometry x="120" y="67.5" width="36" height="25" as="geometry" />
        </mxCell>
        <mxCell id="uTO2k-UujEey4Sm7rqsx-9" value="x" style="rhombus;rounded=1;fontStyle=1;glass=0;sketch=0;fontSize=12;points=[[0,0.5,0,0,0],[0.5,0,0,0,0],[0.5,1,0,0,0],[1,0.5,0,0,0]];shadow=1;fontFamily=Helvetica;fontColor=default;" vertex="1" parent="uTO2k-UujEey4Sm7rqsx-1">
          <mxGeometry x="20" y="200" width="40" height="40" as="geometry" />
        </mxCell>
        <mxCell id="uTO2k-UujEey4Sm7rqsx-11" value="" style="rhombus;rounded=1;fontStyle=1;glass=0;sketch=0;fontSize=12;points=[[0,0.5,0,0,0],[0.5,0,0,0,0],[0.5,1,0,0,0],[1,0.5,0,0,0]];shadow=1;fillColor=#0050ef;fontColor=#ffffff;strokeColor=#001DBC;fontFamily=Helvetica;" vertex="1" parent="uTO2k-UujEey4Sm7rqsx-1">
          <mxGeometry x="820" y="220" width="40" height="40" as="geometry" />
        </mxCell>
        <mxCell id="uTO2k-UujEey4Sm7rqsx-12" value="y" style="rhombus;rounded=1;fontStyle=1;glass=0;sketch=0;fontSize=12;points=[[0,0.5,0,0,0],[0.5,0,0,0,0],[0.5,1,0,0,0],[1,0.5,0,0,0]];shadow=1;fontFamily=Helvetica;fontColor=default;" vertex="1" parent="uTO2k-UujEey4Sm7rqsx-1">
          <mxGeometry x="20" y="280" width="40" height="40" as="geometry" />
        </mxCell>
        <mxCell id="uTO2k-UujEey4Sm7rqsx-13" value="z" style="rhombus;rounded=1;fontStyle=1;glass=0;sketch=0;fontSize=12;points=[[0,0.5,0,0,0],[0.5,0,0,0,0],[0.5,1,0,0,0],[1,0.5,0,0,0]];shadow=1;fontFamily=Helvetica;fontColor=default;" vertex="1" parent="uTO2k-UujEey4Sm7rqsx-1">
          <mxGeometry x="20" y="422.5" width="40" height="40" as="geometry" />
        </mxCell>
        <mxCell id="uTO2k-UujEey4Sm7rqsx-14" value="" style="edgeStyle=orthogonalEdgeStyle;rounded=1;orthogonalLoop=1;jettySize=auto;exitX=1;exitY=0.5;exitDx=0;exitDy=0;exitPerimeter=0;entryX=0;entryY=0.5;entryDx=0;entryDy=0;entryPerimeter=0;curved=0;strokeWidth=2;fillColor=#d5e8d4;strokeColor=#82b366;" edge="1" parent="uTO2k-UujEey4Sm7rqsx-1" source="uTO2k-UujEey4Sm7rqsx-9" target="uTO2k-UujEey4Sm7rqsx-3">
          <mxGeometry relative="1" as="geometry" />
        </mxCell>
        <mxCell id="uTO2k-UujEey4Sm7rqsx-15" value="" style="edgeStyle=orthogonalEdgeStyle;shape=connector;curved=0;rounded=1;orthogonalLoop=1;jettySize=auto;exitX=1;exitY=0.5;exitDx=0;exitDy=0;exitPerimeter=0;entryX=0;entryY=0.5;entryDx=0;entryDy=0;entryPerimeter=0;strokeColor=#82b366;strokeWidth=2;align=center;verticalAlign=middle;fontFamily=Helvetica;fontSize=11;fontColor=default;labelBackgroundColor=default;endArrow=classic;fillColor=#d5e8d4;" edge="1" parent="uTO2k-UujEey4Sm7rqsx-1" source="uTO2k-UujEey4Sm7rqsx-12" target="uTO2k-UujEey4Sm7rqsx-5">
          <mxGeometry relative="1" as="geometry" />
        </mxCell>
        <mxCell id="uTO2k-UujEey4Sm7rqsx-16" value="1then2withoverrun" style="rounded=1;container=1;recursiveResize=0;verticalAlign=top;arcSize=6;fontStyle=1;autosize=0;points=[];absoluteArcSize=1;shadow=1;strokeColor=#6c8ebf;fillColor=#dae8fc;fontFamily=Helvetica;fontSize=11;gradientColor=#0050EF;fontColor=default;" vertex="1" parent="uTO2k-UujEey4Sm7rqsx-1">
          <mxGeometry x="380" y="360" width="140" height="120" as="geometry">
            <mxRectangle x="-98" y="-1230" width="99" height="26" as="alternateBounds" />
          </mxGeometry>
        </mxCell>
        <mxCell id="uTO2k-UujEey4Sm7rqsx-17" value="1" style="rounded=1;sketch=0;points=[[0,0.5,0,0,0],[1,0.5,0,0,0]];arcSize=50;fontFamily=Helvetica;fontSize=11;fontColor=default;" vertex="1" parent="uTO2k-UujEey4Sm7rqsx-16">
          <mxGeometry x="-16.75" y="27.5" width="36.75" height="25" as="geometry" />
        </mxCell>
        <mxCell id="uTO2k-UujEey4Sm7rqsx-18" value="1" style="rounded=1;sketch=0;points=[[0,0.5,0,0,0],[1,0.5,0,0,0]];fillColor=#1ba1e2;fontColor=#ffffff;strokeColor=#006EAF;arcSize=50;fontFamily=Helvetica;fontSize=11;" vertex="1" parent="uTO2k-UujEey4Sm7rqsx-16">
          <mxGeometry x="120" y="27.5" width="36" height="25" as="geometry" />
        </mxCell>
        <mxCell id="uTO2k-UujEey4Sm7rqsx-19" value="2" style="rounded=1;sketch=0;points=[[0,0.5,0,0,0],[1,0.5,0,0,0]];arcSize=50;fontFamily=Helvetica;fontSize=11;fontColor=default;" vertex="1" parent="uTO2k-UujEey4Sm7rqsx-16">
          <mxGeometry x="-16.75" y="70" width="36.75" height="25" as="geometry" />
        </mxCell>
        <mxCell id="uTO2k-UujEey4Sm7rqsx-20" value="2" style="rounded=1;sketch=0;points=[[0,0.5,0,0,0],[1,0.5,0,0,0]];fillColor=#1ba1e2;fontColor=#ffffff;strokeColor=#006EAF;arcSize=50;fontFamily=Helvetica;fontSize=11;" vertex="1" parent="uTO2k-UujEey4Sm7rqsx-16">
          <mxGeometry x="120" y="67.5" width="36" height="25" as="geometry" />
        </mxCell>
        <mxCell id="uTO2k-UujEey4Sm7rqsx-23" value="" style="edgeStyle=orthogonalEdgeStyle;shape=connector;curved=0;rounded=1;orthogonalLoop=1;jettySize=auto;exitX=1;exitY=0.5;exitDx=0;exitDy=0;exitPerimeter=0;entryX=0;entryY=0.5;entryDx=0;entryDy=0;entryPerimeter=0;strokeColor=#82b366;strokeWidth=2;align=center;verticalAlign=middle;fontFamily=Helvetica;fontSize=11;fontColor=default;labelBackgroundColor=default;endArrow=classic;fillColor=#d5e8d4;" edge="1" parent="uTO2k-UujEey4Sm7rqsx-1" source="uTO2k-UujEey4Sm7rqsx-6" target="uTO2k-UujEey4Sm7rqsx-17">
          <mxGeometry relative="1" as="geometry">
            <Array as="points">
              <mxPoint x="342" y="280" />
              <mxPoint x="342" y="400" />
            </Array>
          </mxGeometry>
        </mxCell>
        <mxCell id="uTO2k-UujEey4Sm7rqsx-25" value="do something" style="rounded=1;container=1;recursiveResize=0;verticalAlign=top;arcSize=6;fontStyle=1;autosize=0;points=[];absoluteArcSize=1;shadow=1;strokeColor=#6c8ebf;fillColor=#dae8fc;fontFamily=Helvetica;fontSize=11;gradientColor=#0050EF;fontColor=default;" vertex="1" parent="uTO2k-UujEey4Sm7rqsx-1">
          <mxGeometry x="620" y="200" width="140" height="130" as="geometry">
            <mxRectangle x="-98" y="-1230" width="99" height="26" as="alternateBounds" />
          </mxGeometry>
        </mxCell>
        <mxCell id="uTO2k-UujEey4Sm7rqsx-26" value="x" style="rounded=1;sketch=0;points=[[0,0.5,0,0,0],[1,0.5,0,0,0]];arcSize=50;fontFamily=Helvetica;fontSize=11;fontColor=default;" vertex="1" parent="uTO2k-UujEey4Sm7rqsx-25">
          <mxGeometry x="-16.75" y="27.5" width="36.75" height="25" as="geometry" />
        </mxCell>
        <mxCell id="uTO2k-UujEey4Sm7rqsx-27" value="" style="rounded=1;sketch=0;points=[[0,0.5,0,0,0],[1,0.5,0,0,0]];fillColor=#1ba1e2;fontColor=#ffffff;strokeColor=#006EAF;arcSize=50;fontFamily=Helvetica;fontSize=11;" vertex="1" parent="uTO2k-UujEey4Sm7rqsx-25">
          <mxGeometry x="120" y="27.5" width="36" height="25" as="geometry" />
        </mxCell>
        <mxCell id="uTO2k-UujEey4Sm7rqsx-28" value="y" style="rounded=1;sketch=0;points=[[0,0.5,0,0,0],[1,0.5,0,0,0]];arcSize=50;fontFamily=Helvetica;fontSize=11;fontColor=default;" vertex="1" parent="uTO2k-UujEey4Sm7rqsx-25">
          <mxGeometry x="-16.75" y="60" width="36.75" height="25" as="geometry" />
        </mxCell>
        <mxCell id="uTO2k-UujEey4Sm7rqsx-31" value="z" style="rounded=1;sketch=0;points=[[0,0.5,0,0,0],[1,0.5,0,0,0]];arcSize=50;fontFamily=Helvetica;fontSize=11;fontColor=default;" vertex="1" parent="uTO2k-UujEey4Sm7rqsx-25">
          <mxGeometry x="-16.75" y="87.5" width="36.75" height="25" as="geometry" />
        </mxCell>
        <mxCell id="uTO2k-UujEey4Sm7rqsx-32" value="" style="edgeStyle=orthogonalEdgeStyle;shape=connector;curved=0;rounded=1;orthogonalLoop=1;jettySize=auto;exitX=1;exitY=0.5;exitDx=0;exitDy=0;exitPerimeter=0;entryX=0;entryY=0.5;entryDx=0;entryDy=0;entryPerimeter=0;strokeColor=#82b366;strokeWidth=2;align=center;verticalAlign=middle;fontFamily=Helvetica;fontSize=11;fontColor=default;labelBackgroundColor=default;endArrow=classic;fillColor=#d5e8d4;" edge="1" parent="uTO2k-UujEey4Sm7rqsx-1" source="uTO2k-UujEey4Sm7rqsx-4" target="uTO2k-UujEey4Sm7rqsx-26">
          <mxGeometry relative="1" as="geometry" />
        </mxCell>
        <mxCell id="uTO2k-UujEey4Sm7rqsx-33" value="" style="edgeStyle=orthogonalEdgeStyle;shape=connector;curved=0;rounded=1;orthogonalLoop=1;jettySize=auto;exitX=1;exitY=0.5;exitDx=0;exitDy=0;exitPerimeter=0;strokeColor=#82b366;strokeWidth=2;align=center;verticalAlign=middle;fontFamily=Helvetica;fontSize=11;fontColor=default;labelBackgroundColor=default;endArrow=classic;entryX=0;entryY=0.5;entryDx=0;entryDy=0;entryPerimeter=0;fillColor=#d5e8d4;" edge="1" parent="uTO2k-UujEey4Sm7rqsx-1" source="uTO2k-UujEey4Sm7rqsx-18" target="uTO2k-UujEey4Sm7rqsx-28">
          <mxGeometry relative="1" as="geometry">
            <Array as="points">
              <mxPoint x="560" y="400" />
              <mxPoint x="560" y="273" />
            </Array>
          </mxGeometry>
        </mxCell>
        <mxCell id="uTO2k-UujEey4Sm7rqsx-34" value="" style="edgeStyle=orthogonalEdgeStyle;shape=connector;curved=0;rounded=1;orthogonalLoop=1;jettySize=auto;exitX=1;exitY=0.5;exitDx=0;exitDy=0;exitPerimeter=0;entryX=0;entryY=0.5;entryDx=0;entryDy=0;entryPerimeter=0;strokeColor=#82b366;strokeWidth=2;align=center;verticalAlign=middle;fontFamily=Helvetica;fontSize=11;fontColor=default;labelBackgroundColor=default;endArrow=classic;fillColor=#d5e8d4;" edge="1" parent="uTO2k-UujEey4Sm7rqsx-1" source="uTO2k-UujEey4Sm7rqsx-20" target="uTO2k-UujEey4Sm7rqsx-31">
          <mxGeometry relative="1" as="geometry">
            <Array as="points">
              <mxPoint x="570" y="440" />
              <mxPoint x="570" y="300" />
            </Array>
          </mxGeometry>
        </mxCell>
        <mxCell id="uTO2k-UujEey4Sm7rqsx-39" value="" style="edgeStyle=orthogonalEdgeStyle;shape=connector;curved=0;rounded=1;orthogonalLoop=1;jettySize=auto;exitX=1;exitY=0.5;exitDx=0;exitDy=0;exitPerimeter=0;entryX=0;entryY=0.5;entryDx=0;entryDy=0;entryPerimeter=0;strokeColor=#82b366;strokeWidth=2;align=center;verticalAlign=middle;fontFamily=Helvetica;fontSize=11;fontColor=default;labelBackgroundColor=default;endArrow=classic;fillColor=#d5e8d4;" edge="1" parent="uTO2k-UujEey4Sm7rqsx-1" source="uTO2k-UujEey4Sm7rqsx-27" target="uTO2k-UujEey4Sm7rqsx-11">
          <mxGeometry relative="1" as="geometry" />
        </mxCell>
        <mxCell id="uTO2k-UujEey4Sm7rqsx-40" style="edgeStyle=orthogonalEdgeStyle;shape=connector;curved=0;rounded=1;orthogonalLoop=1;jettySize=auto;html=1;exitX=1;exitY=0.5;exitDx=0;exitDy=0;exitPerimeter=0;entryX=0;entryY=0.5;entryDx=0;entryDy=0;entryPerimeter=0;strokeColor=#82b366;strokeWidth=2;align=center;verticalAlign=middle;fontFamily=Helvetica;fontSize=11;fontColor=default;labelBackgroundColor=default;endArrow=classic;fillColor=#d5e8d4;" edge="1" parent="uTO2k-UujEey4Sm7rqsx-1" source="uTO2k-UujEey4Sm7rqsx-13" target="uTO2k-UujEey4Sm7rqsx-19">
          <mxGeometry relative="1" as="geometry" />
        </mxCell>
      </root>
    </mxGraphModel>
  </diagram>
  <diagram name="happy path for 1then2withoverrun" id="BhhzoQQYCo6eNYn8ldDX">
    <mxGraphModel dx="1100" dy="713" grid="1" gridSize="10" guides="1" tooltips="1" connect="1" arrows="1" fold="1" page="1" pageScale="1" pageWidth="850" pageHeight="1100" math="0" shadow="0">
      <root>
        <mxCell id="0xVEpcSYFMQlq0QwIqJh-0" />
        <mxCell id="0xVEpcSYFMQlq0QwIqJh-1" parent="0xVEpcSYFMQlq0QwIqJh-0" />
        <mxCell id="0xVEpcSYFMQlq0QwIqJh-2" value="" style="rounded=1;whiteSpace=wrap;html=1;fontFamily=Helvetica;fontSize=11;fontColor=default;labelBackgroundColor=default;" vertex="1" parent="0xVEpcSYFMQlq0QwIqJh-1">
          <mxGeometry x="40" y="70" width="300" height="340" as="geometry" />
        </mxCell>
        <mxCell id="0xVEpcSYFMQlq0QwIqJh-30" style="edgeStyle=orthogonalEdgeStyle;shape=connector;curved=1;rounded=0;orthogonalLoop=1;jettySize=auto;html=1;exitX=0.5;exitY=1;exitDx=0;exitDy=0;entryX=0.5;entryY=0;entryDx=0;entryDy=0;strokeColor=default;strokeWidth=2;align=center;verticalAlign=middle;fontFamily=Helvetica;fontSize=11;fontColor=default;labelBackgroundColor=default;endArrow=classic;" edge="1" parent="0xVEpcSYFMQlq0QwIqJh-1" source="0xVEpcSYFMQlq0QwIqJh-34" target="0xVEpcSYFMQlq0QwIqJh-37">
          <mxGeometry relative="1" as="geometry" />
        </mxCell>
        <mxCell id="0xVEpcSYFMQlq0QwIqJh-31" value="1" style="edgeLabel;html=1;align=center;verticalAlign=middle;resizable=0;points=[];fontFamily=Helvetica;fontSize=11;fontColor=default;labelBackgroundColor=default;" vertex="1" connectable="0" parent="0xVEpcSYFMQlq0QwIqJh-30">
          <mxGeometry x="-0.05" y="-1" relative="1" as="geometry">
            <mxPoint as="offset" />
          </mxGeometry>
        </mxCell>
        <mxCell id="0xVEpcSYFMQlq0QwIqJh-32" style="edgeStyle=orthogonalEdgeStyle;shape=connector;curved=1;rounded=0;orthogonalLoop=1;jettySize=auto;html=1;exitX=0.5;exitY=1;exitDx=0;exitDy=0;strokeColor=default;strokeWidth=2;align=center;verticalAlign=middle;fontFamily=Helvetica;fontSize=11;fontColor=default;labelBackgroundColor=default;endArrow=classic;" edge="1" parent="0xVEpcSYFMQlq0QwIqJh-1" source="0xVEpcSYFMQlq0QwIqJh-34" target="0xVEpcSYFMQlq0QwIqJh-40">
          <mxGeometry relative="1" as="geometry" />
        </mxCell>
        <mxCell id="0xVEpcSYFMQlq0QwIqJh-33" value="2" style="edgeLabel;html=1;align=center;verticalAlign=middle;resizable=0;points=[];fontFamily=Helvetica;fontSize=11;fontColor=default;labelBackgroundColor=default;" vertex="1" connectable="0" parent="0xVEpcSYFMQlq0QwIqJh-32">
          <mxGeometry x="-0.0167" y="2" relative="1" as="geometry">
            <mxPoint as="offset" />
          </mxGeometry>
        </mxCell>
        <mxCell id="0xVEpcSYFMQlq0QwIqJh-34" value="idle" style="ellipse;whiteSpace=wrap;html=1;fontFamily=Helvetica;fontSize=11;fontColor=default;labelBackgroundColor=default;" vertex="1" parent="0xVEpcSYFMQlq0QwIqJh-1">
          <mxGeometry x="150" y="100" width="80" height="40" as="geometry" />
        </mxCell>
        <mxCell id="0xVEpcSYFMQlq0QwIqJh-35" style="edgeStyle=orthogonalEdgeStyle;shape=connector;curved=1;rounded=0;orthogonalLoop=1;jettySize=auto;html=1;exitX=0.5;exitY=1;exitDx=0;exitDy=0;entryX=0.5;entryY=0;entryDx=0;entryDy=0;strokeColor=default;strokeWidth=2;align=center;verticalAlign=middle;fontFamily=Helvetica;fontSize=11;fontColor=default;labelBackgroundColor=default;endArrow=classic;" edge="1" parent="0xVEpcSYFMQlq0QwIqJh-1" source="0xVEpcSYFMQlq0QwIqJh-37" target="JSwD3l0AmO5h8L8pNsZo-3">
          <mxGeometry relative="1" as="geometry">
            <mxPoint x="190" y="340" as="targetPoint" />
          </mxGeometry>
        </mxCell>
        <mxCell id="0xVEpcSYFMQlq0QwIqJh-36" value="2" style="edgeLabel;html=1;align=center;verticalAlign=middle;resizable=0;points=[];fontFamily=Helvetica;fontSize=11;fontColor=default;labelBackgroundColor=default;" vertex="1" connectable="0" parent="0xVEpcSYFMQlq0QwIqJh-35">
          <mxGeometry x="-0.0714" y="2" relative="1" as="geometry">
            <mxPoint as="offset" />
          </mxGeometry>
        </mxCell>
        <mxCell id="0xVEpcSYFMQlq0QwIqJh-37" value="want2" style="ellipse;whiteSpace=wrap;html=1;fontFamily=Helvetica;fontSize=11;fontColor=default;labelBackgroundColor=default;" vertex="1" parent="0xVEpcSYFMQlq0QwIqJh-1">
          <mxGeometry x="70" y="220" width="80" height="40" as="geometry" />
        </mxCell>
        <mxCell id="0xVEpcSYFMQlq0QwIqJh-40" value="want1" style="ellipse;whiteSpace=wrap;html=1;fontFamily=Helvetica;fontSize=11;fontColor=default;labelBackgroundColor=default;" vertex="1" parent="0xVEpcSYFMQlq0QwIqJh-1">
          <mxGeometry x="230" y="220" width="80" height="40" as="geometry" />
        </mxCell>
        <mxCell id="0xVEpcSYFMQlq0QwIqJh-42" value="Happy path for 1then2withoverrun" style="rounded=1;whiteSpace=wrap;html=1;fontFamily=Helvetica;fontSize=11;fontColor=default;labelBackgroundColor=default;" vertex="1" parent="0xVEpcSYFMQlq0QwIqJh-1">
          <mxGeometry x="90" y="40" width="190" height="30" as="geometry" />
        </mxCell>
        <mxCell id="JSwD3l0AmO5h8L8pNsZo-4" value="do something" style="rounded=1;whiteSpace=wrap;html=1;fontFamily=Helvetica;fontSize=11;fontColor=default;labelBackgroundColor=default;textOpacity=50;strokeColor=none;" vertex="1" parent="0xVEpcSYFMQlq0QwIqJh-1">
          <mxGeometry x="142.5" y="360" width="110" height="10" as="geometry" />
        </mxCell>
        <mxCell id="JSwD3l0AmO5h8L8pNsZo-5" value="" style="edgeStyle=orthogonalEdgeStyle;shape=connector;curved=1;rounded=0;orthogonalLoop=1;jettySize=auto;html=1;exitX=0.5;exitY=1;exitDx=0;exitDy=0;entryX=0.5;entryY=0;entryDx=0;entryDy=0;strokeColor=default;strokeWidth=2;align=center;verticalAlign=middle;fontFamily=Helvetica;fontSize=11;fontColor=default;labelBackgroundColor=default;endArrow=classic;" edge="1" parent="0xVEpcSYFMQlq0QwIqJh-1" source="0xVEpcSYFMQlq0QwIqJh-40" target="JSwD3l0AmO5h8L8pNsZo-3">
          <mxGeometry relative="1" as="geometry">
            <mxPoint x="270" y="260" as="sourcePoint" />
            <mxPoint x="190" y="340" as="targetPoint" />
          </mxGeometry>
        </mxCell>
        <mxCell id="JSwD3l0AmO5h8L8pNsZo-6" value="1" style="edgeLabel;html=1;align=center;verticalAlign=middle;resizable=0;points=[];fontFamily=Helvetica;fontSize=11;fontColor=default;labelBackgroundColor=default;" vertex="1" connectable="0" parent="JSwD3l0AmO5h8L8pNsZo-5">
          <mxGeometry x="-0.1571" y="-4" relative="1" as="geometry">
            <mxPoint as="offset" />
          </mxGeometry>
        </mxCell>
        <mxCell id="JSwD3l0AmO5h8L8pNsZo-3" value="" style="ellipse;whiteSpace=wrap;html=1;fontFamily=Helvetica;fontSize=11;fontColor=default;labelBackgroundColor=default;" vertex="1" parent="0xVEpcSYFMQlq0QwIqJh-1">
          <mxGeometry x="190" y="340" width="10" height="10" as="geometry" />
        </mxCell>
      </root>
    </mxGraphModel>
  </diagram>
  <diagram name="more detail for 1then2withoverrun" id="8ENwNnDMPX7PSnck2XXj">
    <mxGraphModel dx="1100" dy="713" grid="1" gridSize="10" guides="1" tooltips="1" connect="1" arrows="1" fold="1" page="1" pageScale="1" pageWidth="850" pageHeight="1100" math="0" shadow="0">
      <root>
        <mxCell id="ROphZsuv7naoKw1Pmx8P-0" />
        <mxCell id="ROphZsuv7naoKw1Pmx8P-1" parent="ROphZsuv7naoKw1Pmx8P-0" />
        <mxCell id="ROphZsuv7naoKw1Pmx8P-13" value="" style="rounded=1;whiteSpace=wrap;html=1;fontFamily=Helvetica;fontSize=11;fontColor=default;labelBackgroundColor=default;" vertex="1" parent="ROphZsuv7naoKw1Pmx8P-1">
          <mxGeometry x="30" y="100" width="430" height="390" as="geometry" />
        </mxCell>
        <mxCell id="ROphZsuv7naoKw1Pmx8P-14" style="edgeStyle=orthogonalEdgeStyle;shape=connector;curved=1;rounded=0;orthogonalLoop=1;jettySize=auto;html=1;exitX=0.5;exitY=1;exitDx=0;exitDy=0;entryX=0.5;entryY=0;entryDx=0;entryDy=0;strokeColor=default;strokeWidth=2;align=center;verticalAlign=middle;fontFamily=Helvetica;fontSize=11;fontColor=default;labelBackgroundColor=default;endArrow=classic;" edge="1" parent="ROphZsuv7naoKw1Pmx8P-1" source="ROphZsuv7naoKw1Pmx8P-18" target="ROphZsuv7naoKw1Pmx8P-25">
          <mxGeometry relative="1" as="geometry" />
        </mxCell>
        <mxCell id="ROphZsuv7naoKw1Pmx8P-15" value="1" style="edgeLabel;html=1;align=center;verticalAlign=middle;resizable=0;points=[];fontFamily=Helvetica;fontSize=11;fontColor=default;labelBackgroundColor=default;" vertex="1" connectable="0" parent="ROphZsuv7naoKw1Pmx8P-14">
          <mxGeometry x="-0.05" y="-1" relative="1" as="geometry">
            <mxPoint as="offset" />
          </mxGeometry>
        </mxCell>
        <mxCell id="ROphZsuv7naoKw1Pmx8P-16" style="edgeStyle=orthogonalEdgeStyle;shape=connector;curved=1;rounded=0;orthogonalLoop=1;jettySize=auto;html=1;exitX=0.5;exitY=1;exitDx=0;exitDy=0;strokeColor=default;strokeWidth=2;align=center;verticalAlign=middle;fontFamily=Helvetica;fontSize=11;fontColor=default;labelBackgroundColor=default;endArrow=classic;" edge="1" parent="ROphZsuv7naoKw1Pmx8P-1" source="ROphZsuv7naoKw1Pmx8P-18" target="ROphZsuv7naoKw1Pmx8P-32">
          <mxGeometry relative="1" as="geometry" />
        </mxCell>
        <mxCell id="ROphZsuv7naoKw1Pmx8P-17" value="2" style="edgeLabel;html=1;align=center;verticalAlign=middle;resizable=0;points=[];fontFamily=Helvetica;fontSize=11;fontColor=default;labelBackgroundColor=default;" vertex="1" connectable="0" parent="ROphZsuv7naoKw1Pmx8P-16">
          <mxGeometry x="-0.0167" y="2" relative="1" as="geometry">
            <mxPoint as="offset" />
          </mxGeometry>
        </mxCell>
        <mxCell id="ROphZsuv7naoKw1Pmx8P-18" value="idle" style="ellipse;whiteSpace=wrap;html=1;fontFamily=Helvetica;fontSize=11;fontColor=default;labelBackgroundColor=default;" vertex="1" parent="ROphZsuv7naoKw1Pmx8P-1">
          <mxGeometry x="180" y="160" width="80" height="40" as="geometry" />
        </mxCell>
        <mxCell id="ROphZsuv7naoKw1Pmx8P-19" style="edgeStyle=orthogonalEdgeStyle;shape=connector;curved=1;rounded=0;orthogonalLoop=1;jettySize=auto;html=1;exitX=0.5;exitY=1;exitDx=0;exitDy=0;entryX=0.5;entryY=0;entryDx=0;entryDy=0;strokeColor=default;strokeWidth=2;align=center;verticalAlign=middle;fontFamily=Helvetica;fontSize=11;fontColor=default;labelBackgroundColor=default;endArrow=classic;" edge="1" parent="ROphZsuv7naoKw1Pmx8P-1" source="ROphZsuv7naoKw1Pmx8P-25" target="ROphZsuv7naoKw1Pmx8P-34">
          <mxGeometry relative="1" as="geometry" />
        </mxCell>
        <mxCell id="ROphZsuv7naoKw1Pmx8P-20" value="2" style="edgeLabel;html=1;align=center;verticalAlign=middle;resizable=0;points=[];fontFamily=Helvetica;fontSize=11;fontColor=default;labelBackgroundColor=default;" vertex="1" connectable="0" parent="ROphZsuv7naoKw1Pmx8P-19">
          <mxGeometry x="-0.0714" y="2" relative="1" as="geometry">
            <mxPoint as="offset" />
          </mxGeometry>
        </mxCell>
        <mxCell id="ROphZsuv7naoKw1Pmx8P-21" style="edgeStyle=orthogonalEdgeStyle;shape=connector;curved=1;rounded=0;orthogonalLoop=1;jettySize=auto;html=1;exitX=0;exitY=0.5;exitDx=0;exitDy=0;entryX=0;entryY=0.5;entryDx=0;entryDy=0;strokeColor=#b85450;strokeWidth=1;align=center;verticalAlign=middle;fontFamily=Helvetica;fontSize=11;fontColor=default;labelBackgroundColor=default;endArrow=classic;fillColor=#f8cecc;" edge="1" parent="ROphZsuv7naoKw1Pmx8P-1" source="ROphZsuv7naoKw1Pmx8P-25" target="ROphZsuv7naoKw1Pmx8P-18">
          <mxGeometry relative="1" as="geometry" />
        </mxCell>
        <mxCell id="ROphZsuv7naoKw1Pmx8P-22" value="overrun" style="edgeLabel;html=1;align=center;verticalAlign=middle;resizable=0;points=[];fontFamily=Helvetica;fontSize=11;fontColor=#FF9999;labelBackgroundColor=default;" vertex="1" connectable="0" parent="ROphZsuv7naoKw1Pmx8P-21">
          <mxGeometry x="-0.25" y="2" relative="1" as="geometry">
            <mxPoint as="offset" />
          </mxGeometry>
        </mxCell>
        <mxCell id="ROphZsuv7naoKw1Pmx8P-23" style="edgeStyle=orthogonalEdgeStyle;shape=connector;curved=1;rounded=0;orthogonalLoop=1;jettySize=auto;html=1;exitX=0;exitY=1;exitDx=0;exitDy=0;entryX=0;entryY=0;entryDx=0;entryDy=0;strokeColor=default;strokeWidth=2;align=center;verticalAlign=middle;fontFamily=Helvetica;fontSize=11;fontColor=default;labelBackgroundColor=default;endArrow=classic;" edge="1" parent="ROphZsuv7naoKw1Pmx8P-1" source="ROphZsuv7naoKw1Pmx8P-25" target="ROphZsuv7naoKw1Pmx8P-18">
          <mxGeometry relative="1" as="geometry">
            <Array as="points">
              <mxPoint x="50" y="314" />
              <mxPoint x="50" y="166" />
            </Array>
          </mxGeometry>
        </mxCell>
        <mxCell id="ROphZsuv7naoKw1Pmx8P-24" value="reset" style="edgeLabel;html=1;align=center;verticalAlign=middle;resizable=0;points=[];fontFamily=Helvetica;fontSize=11;fontColor=default;labelBackgroundColor=default;" vertex="1" connectable="0" parent="ROphZsuv7naoKw1Pmx8P-23">
          <mxGeometry x="-0.4664" y="-2" relative="1" as="geometry">
            <mxPoint as="offset" />
          </mxGeometry>
        </mxCell>
        <mxCell id="ROphZsuv7naoKw1Pmx8P-25" value="want2" style="ellipse;whiteSpace=wrap;html=1;fontFamily=Helvetica;fontSize=11;fontColor=default;labelBackgroundColor=default;" vertex="1" parent="ROphZsuv7naoKw1Pmx8P-1">
          <mxGeometry x="100" y="280" width="80" height="40" as="geometry" />
        </mxCell>
        <mxCell id="ROphZsuv7naoKw1Pmx8P-26" style="edgeStyle=orthogonalEdgeStyle;shape=connector;curved=1;rounded=0;orthogonalLoop=1;jettySize=auto;html=1;exitX=0.5;exitY=1;exitDx=0;exitDy=0;entryX=0.5;entryY=0;entryDx=0;entryDy=0;strokeColor=default;strokeWidth=2;align=center;verticalAlign=middle;fontFamily=Helvetica;fontSize=11;fontColor=default;labelBackgroundColor=default;endArrow=classic;" edge="1" parent="ROphZsuv7naoKw1Pmx8P-1" source="ROphZsuv7naoKw1Pmx8P-32" target="ROphZsuv7naoKw1Pmx8P-34">
          <mxGeometry relative="1" as="geometry" />
        </mxCell>
        <mxCell id="ROphZsuv7naoKw1Pmx8P-27" value="1" style="edgeLabel;html=1;align=center;verticalAlign=middle;resizable=0;points=[];fontFamily=Helvetica;fontSize=11;fontColor=default;labelBackgroundColor=default;" vertex="1" connectable="0" parent="ROphZsuv7naoKw1Pmx8P-26">
          <mxGeometry x="-0.1571" y="-4" relative="1" as="geometry">
            <mxPoint as="offset" />
          </mxGeometry>
        </mxCell>
        <mxCell id="ROphZsuv7naoKw1Pmx8P-28" style="edgeStyle=orthogonalEdgeStyle;shape=connector;curved=1;rounded=0;orthogonalLoop=1;jettySize=auto;html=1;exitX=1;exitY=0.5;exitDx=0;exitDy=0;entryX=1;entryY=0.5;entryDx=0;entryDy=0;strokeColor=#b85450;strokeWidth=1;align=center;verticalAlign=middle;fontFamily=Helvetica;fontSize=11;fontColor=default;labelBackgroundColor=default;endArrow=classic;fillColor=#f8cecc;" edge="1" parent="ROphZsuv7naoKw1Pmx8P-1" source="ROphZsuv7naoKw1Pmx8P-32" target="ROphZsuv7naoKw1Pmx8P-18">
          <mxGeometry relative="1" as="geometry" />
        </mxCell>
        <mxCell id="ROphZsuv7naoKw1Pmx8P-29" value="overrun" style="edgeLabel;html=1;align=center;verticalAlign=middle;resizable=0;points=[];fontFamily=Helvetica;fontSize=11;fontColor=#FF9999;labelBackgroundColor=default;" vertex="1" connectable="0" parent="ROphZsuv7naoKw1Pmx8P-28">
          <mxGeometry x="-0.2417" y="-1" relative="1" as="geometry">
            <mxPoint as="offset" />
          </mxGeometry>
        </mxCell>
        <mxCell id="ROphZsuv7naoKw1Pmx8P-30" style="edgeStyle=orthogonalEdgeStyle;shape=connector;curved=1;rounded=0;orthogonalLoop=1;jettySize=auto;html=1;exitX=1;exitY=1;exitDx=0;exitDy=0;entryX=1;entryY=0;entryDx=0;entryDy=0;strokeColor=default;strokeWidth=2;align=center;verticalAlign=middle;fontFamily=Helvetica;fontSize=11;fontColor=default;labelBackgroundColor=default;endArrow=classic;" edge="1" parent="ROphZsuv7naoKw1Pmx8P-1" source="ROphZsuv7naoKw1Pmx8P-32" target="ROphZsuv7naoKw1Pmx8P-18">
          <mxGeometry relative="1" as="geometry">
            <Array as="points">
              <mxPoint x="400" y="314" />
              <mxPoint x="400" y="166" />
            </Array>
          </mxGeometry>
        </mxCell>
        <mxCell id="ROphZsuv7naoKw1Pmx8P-31" value="reset" style="edgeLabel;html=1;align=center;verticalAlign=middle;resizable=0;points=[];fontFamily=Helvetica;fontSize=11;fontColor=default;labelBackgroundColor=default;" vertex="1" connectable="0" parent="ROphZsuv7naoKw1Pmx8P-30">
          <mxGeometry x="-0.4036" y="5" relative="1" as="geometry">
            <mxPoint as="offset" />
          </mxGeometry>
        </mxCell>
        <mxCell id="ROphZsuv7naoKw1Pmx8P-32" value="want1" style="ellipse;whiteSpace=wrap;html=1;fontFamily=Helvetica;fontSize=11;fontColor=default;labelBackgroundColor=default;" vertex="1" parent="ROphZsuv7naoKw1Pmx8P-1">
          <mxGeometry x="260" y="280" width="80" height="40" as="geometry" />
        </mxCell>
        <mxCell id="ROphZsuv7naoKw1Pmx8P-33" style="edgeStyle=orthogonalEdgeStyle;shape=connector;curved=1;rounded=0;orthogonalLoop=1;jettySize=auto;html=1;entryX=0.5;entryY=0;entryDx=0;entryDy=0;strokeColor=default;strokeWidth=2;align=center;verticalAlign=middle;fontFamily=Helvetica;fontSize=11;fontColor=default;labelBackgroundColor=default;endArrow=classic;exitX=0.5;exitY=1;exitDx=0;exitDy=0;" edge="1" parent="ROphZsuv7naoKw1Pmx8P-1" source="ROphZsuv7naoKw1Pmx8P-34" target="ROphZsuv7naoKw1Pmx8P-18">
          <mxGeometry relative="1" as="geometry">
            <Array as="points">
              <mxPoint x="220" y="470" />
              <mxPoint x="430" y="470" />
              <mxPoint x="430" y="120" />
              <mxPoint x="220" y="120" />
            </Array>
          </mxGeometry>
        </mxCell>
        <mxCell id="ROphZsuv7naoKw1Pmx8P-34" value="" style="ellipse;whiteSpace=wrap;html=1;fontFamily=Helvetica;fontSize=11;fontColor=default;labelBackgroundColor=default;" vertex="1" parent="ROphZsuv7naoKw1Pmx8P-1">
          <mxGeometry x="215" y="400" width="10" height="10" as="geometry" />
        </mxCell>
        <mxCell id="ROphZsuv7naoKw1Pmx8P-35" value="More detail (incomplete, though) for 1then2withoverrun" style="rounded=1;whiteSpace=wrap;html=1;fontFamily=Helvetica;fontSize=11;fontColor=default;labelBackgroundColor=default;" vertex="1" parent="ROphZsuv7naoKw1Pmx8P-1">
          <mxGeometry x="110" y="70" width="190" height="30" as="geometry" />
        </mxCell>
        <mxCell id="ROphZsuv7naoKw1Pmx8P-36" value="do something,&lt;div&gt;then return to idle&lt;/div&gt;" style="rounded=1;whiteSpace=wrap;html=1;fontFamily=Helvetica;fontSize=11;fontColor=default;labelBackgroundColor=default;textOpacity=50;strokeColor=none;" vertex="1" parent="ROphZsuv7naoKw1Pmx8P-1">
          <mxGeometry x="230" y="390" width="110" height="30" as="geometry" />
        </mxCell>
      </root>
    </mxGraphModel>
  </diagram>
</mxfile>
